<svg xmlns="http://www.w3.org/2000/svg" viewBox="0 0 512 512"><path d="M394.667 256c-76.55-.082-138.585-62.117-138.667-138.667 0-3.605.277-7.125.533-10.667H96c-5.891-.001-10.668 4.773-10.669 10.664 0 .717.072 1.433.216 2.136L128.213 332.8a10.666 10.666 0 0011.861 8.533l320-42.667a10.667 10.667 0 008.939-8L486.4 221.12A137.94 137.94 0 01394.667 256z" fill="#ffc107"/><g fill="#455a64"><circle cx="394.667" cy="458.667" r="53.333"/><circle cx="181.333" cy="458.667" r="53.333"/><path d="M191.125 384h246.208c5.891 0 10.667-4.776 10.667-10.667s-4.776-10.667-10.667-10.667H191.125c-25.408-.053-47.272-17.976-52.309-42.88L85.12 51.2a10.667 10.667 0 00-10.453-8.533h-64C4.776 42.667 0 47.442 0 53.333S4.776 64 10.667 64H65.92l51.989 259.968c7.045 34.863 37.648 59.956 73.216 60.032z"/></g><circle cx="394.667" cy="117.333" r="117.333" fill="#f44336"/><g fill="#fafafa"><path d="M394.667 170.667c-28.736 0-51.2-12.331-53.333-29.312-.742-5.891 3.432-11.268 9.323-12.011 5.891-.742 11.268 3.432 12.011 9.323.384 3.093 12.096 10.667 32 10.667 20.672 0 32-8.021 32-10.667 0 0-.363-6.656-31.104-10.475l-2.348-.192c-15.616-2.027-51.883-6.4-51.883-32 0-18.24 22.933-32 53.333-32 28.715 0 51.2 12.309 53.333 29.291.741 5.844-3.397 11.182-9.241 11.923l-.018.002c-5.833.825-11.23-3.235-12.055-9.068a6.61 6.61 0 01-.02-.148c-.32-2.475-10.923-10.667-32-10.667-20.672 0-32 8.021-32 10.667 0 0 .363 6.699 31.232 10.475l2.133.299c15.703 2.026 51.97 6.421 51.97 31.893 0 18.24-22.933 32-53.333 32z"/><path d="M394.667 192c-5.891 0-10.667-4.776-10.667-10.667v-128c0-5.891 4.776-10.667 10.667-10.667s10.667 4.776 10.667 10.667v128c-.001 5.891-4.776 10.667-10.667 10.667z"/></g></svg>